<?xml version="1.0" encoding="utf-8"?>
<!-- Generated by IcoMoon.io -->
<svg version="1.1" xmlns="http://www.w3.org/2000/svg" xmlns:xlink="http://www.w3.org/1999/xlink" width="752" height="32" viewBox="0 0 752 32">
<svg id="sell-iconadd_circle" width="32" height="32" viewBox="0 0 32 32" x="0" y="0">
<path d="M22.688 17.313v-2.625h-5.375v-5.375h-2.625v5.375h-5.375v2.625h5.375v5.375h2.625v-5.375h5.375zM16 2.688q5.5 0 9.406 3.906t3.906 9.406-3.906 9.406-9.406 3.906-9.406-3.906-3.906-9.406 3.906-9.406 9.406-3.906z"></path>
</svg>
<svg id="sell-iconarrow_lift" width="32" height="32" viewBox="0 0 32 32" x="48" y="0">
<path d="M7.712 14.635l13.845-13.835c0.779-0.779 1.952-0.779 2.731 0s0.779 1.952 0 2.731l-12.48 12.48 12.48 12.48c0.779 0.779 0.779 1.952 0 2.731s-1.952 0.779-2.731 0l-13.845-13.856c-0.779-0.779-0.779-1.952 0-2.731z"></path>
</svg>
<svg id="sell-iconcheck_circle" width="32" height="32" viewBox="0 0 32 32" x="96" y="0">
<path d="M13.313 22.688l12-12-1.875-1.938-10.125 10.125-4.75-4.75-1.875 1.875zM16 2.688q5.5 0 9.406 3.906t3.906 9.406-3.906 9.406-9.406 3.906-9.406-3.906-3.906-9.406 3.906-9.406 9.406-3.906z"></path>
</svg>
<svg id="sell-iconclose" width="32" height="32" viewBox="0 0 32 32" x="144" y="0">
<path d="M25.313 8.563l-7.438 7.438 7.438 7.438-1.875 1.875-7.438-7.438-7.438 7.438-1.875-1.875 7.438-7.438-7.438-7.438 1.875-1.875 7.438 7.438 7.438-7.438z"></path>
</svg>
<svg id="sell-iconfavorite" width="32" height="32" viewBox="0 0 32 32" x="192" y="0">
<path d="M16 28.438l-1.938-1.75c-6.875-6.25-11.375-10.313-11.375-15.375 0-4.125 3.188-7.313 7.313-7.313 2.313 0 4.563 1.125 6 2.813 1.438-1.688 3.688-2.813 6-2.813 4.125 0 7.313 3.188 7.313 7.313 0 5.063-4.5 9.188-11.375 15.438z"></path>
</svg>
<svg id="sell-iconkeyboard_arrow_right" width="32" height="32" viewBox="0 0 32 32" x="240" y="0">
<path d="M11.438 21.813l6.125-6.125-6.125-6.125 1.875-1.875 8 8-8 8z"></path>
</svg>
<svg id="sell-iconremove_circle_outline" width="32" height="32" viewBox="0 0 32 32" x="288" y="0">
<path d="M16 26.688q4.375 0 7.531-3.156t3.156-7.531-3.156-7.531-7.531-3.156-7.531 3.156-3.156 7.531 3.156 7.531 7.531 3.156zM16 2.688q5.5 0 9.406 3.906t3.906 9.406-3.906 9.406-9.406 3.906-9.406-3.906-3.906-9.406 3.906-9.406 9.406-3.906zM9.313 14.688h13.375v2.625h-13.375v-2.625z"></path>
</svg>
<svg id="sell-iconshopping_cart" width="32" height="32" viewBox="0 0 32 32" x="336" y="0">
<path d="M22.688 24q1.063 0 1.844 0.813t0.781 1.875-0.781 1.844-1.844 0.781-1.875-0.781-0.813-1.844 0.813-1.875 1.875-0.813zM1.313 2.688h4.375l1.25 2.625h19.75q0.563 0 0.938 0.406t0.375 0.969q0 0.313-0.188 0.625l-4.75 8.625q-0.75 1.375-2.313 1.375h-9.938l-1.188 2.188-0.063 0.188q0 0.313 0.313 0.313h15.438v2.688h-16q-1.063 0-1.844-0.813t-0.781-1.875q0-0.625 0.313-1.25l1.813-3.313-4.813-10.125h-2.688v-2.625zM9.313 24q1.063 0 1.875 0.813t0.813 1.875-0.813 1.844-1.875 0.781-1.844-0.781-0.781-1.844 0.781-1.875 1.844-0.813z"></path>
</svg>
<svg id="sell-iconthumb_down" width="32" height="32" viewBox="0 0 32 32" x="384" y="0">
<path d="M25.313 4h5.375v16h-5.375v-16zM20 4q1.063 0 1.875 0.813t0.813 1.875v13.313q0 1.063-0.813 1.875l-8.75 8.813-1.438-1.438q-0.563-0.563-0.563-1.375v-0.438l1.313-6.125h-8.438q-1.063 0-1.875-0.781t-0.813-1.844l0.063-0.125h-0.063v-2.563q0-0.5 0.188-1l4.063-9.375q0.625-1.625 2.438-1.625h12z"></path>
</svg>
<svg id="sell-iconthumb_up" width="32" height="32" viewBox="0 0 32 32" x="432" y="0">
<path d="M30.688 13.313l-0.063 0.125h0.063v2.563q0 0.5-0.188 1l-4.063 9.375q-0.625 1.625-2.438 1.625h-12q-1.063 0-1.875-0.813t-0.813-1.875v-13.313q0-1.063 0.813-1.875l8.75-8.813 1.438 1.438q0.563 0.563 0.563 1.375v0.438l-1.313 6.125h8.438q1.063 0 1.875 0.781t0.813 1.844zM1.313 28v-16h5.375v16h-5.375z"></path>
</svg>
</svg>
